<mxfile host="65bd71144e">
    <diagram id="klauil4hgw1UwHL0ijro" name="Yeager">
        <mxGraphModel dx="884" dy="605" grid="1" gridSize="10" guides="1" tooltips="1" connect="1" arrows="1" fold="1" page="1" pageScale="1" pageWidth="850" pageHeight="1100" math="0" shadow="0">
            <root>
                <mxCell id="0"/>
                <mxCell id="1" parent="0"/>
                <mxCell id="6" value="" style="shape=hexagon;perimeter=hexagonPerimeter2;whiteSpace=wrap;html=1;fixedSize=1;direction=south;fillColor=#FFFFFF;" parent="1" vertex="1">
                    <mxGeometry x="100" y="50" width="540" height="290" as="geometry"/>
                </mxCell>
                <mxCell id="2" value="" style="ellipse;whiteSpace=wrap;html=1;" parent="1" vertex="1">
                    <mxGeometry x="130" y="100" width="120" height="120" as="geometry"/>
                </mxCell>
                <mxCell id="3" value="" style="ellipse;whiteSpace=wrap;html=1;" parent="1" vertex="1">
                    <mxGeometry x="490" y="100" width="120" height="120" as="geometry"/>
                </mxCell>
                <mxCell id="5" value="" style="shape=xor;whiteSpace=wrap;html=1;rotation=90;" parent="1" vertex="1">
                    <mxGeometry x="350" y="160" width="50" height="200" as="geometry"/>
                </mxCell>
                <mxCell id="7" value="Actor" style="shape=umlActor;verticalLabelPosition=bottom;verticalAlign=top;html=1;outlineConnect=0;fillColor=#000000;strokeColor=#050505;gradientColor=#ffffff;fontColor=#0A0A0A;" parent="1" vertex="1">
                    <mxGeometry x="320" y="100" width="40" height="80" as="geometry"/>
                </mxCell>
                <mxCell id="8" value="Actor" style="shape=umlActor;verticalLabelPosition=bottom;verticalAlign=top;html=1;outlineConnect=0;fillColor=#000000;strokeColor=#050505;gradientColor=#ffffff;fontColor=#0A0A0A;" parent="1" vertex="1">
                    <mxGeometry x="390" y="100" width="40" height="80" as="geometry"/>
                </mxCell>
                <mxCell id="11" value="" style="rounded=1;whiteSpace=wrap;html=1;fontColor=#0A0A0A;strokeColor=#050505;fillColor=#000000;gradientColor=#ffffff;arcSize=50;" parent="1" vertex="1">
                    <mxGeometry x="310" y="180" width="20" height="10" as="geometry"/>
                </mxCell>
                <mxCell id="12" value="" style="rounded=1;whiteSpace=wrap;html=1;fontColor=#0A0A0A;strokeColor=#050505;fillColor=#000000;gradientColor=#ffffff;arcSize=50;" parent="1" vertex="1">
                    <mxGeometry x="350" y="180" width="20" height="10" as="geometry"/>
                </mxCell>
                <mxCell id="13" value="" style="rounded=1;whiteSpace=wrap;html=1;fontColor=#0A0A0A;strokeColor=#050505;fillColor=#000000;gradientColor=#ffffff;arcSize=50;" parent="1" vertex="1">
                    <mxGeometry x="380" y="180" width="20" height="10" as="geometry"/>
                </mxCell>
                <mxCell id="14" value="" style="rounded=1;whiteSpace=wrap;html=1;fontColor=#0A0A0A;strokeColor=#050505;fillColor=#000000;gradientColor=#ffffff;arcSize=50;" parent="1" vertex="1">
                    <mxGeometry x="419" y="180" width="20" height="10" as="geometry"/>
                </mxCell>
                <mxCell id="15" value="" style="shape=process;whiteSpace=wrap;html=1;backgroundOutline=1;fontColor=#0A0A0A;strokeColor=#050505;fillColor=#000000;gradientColor=#ffffff;" parent="1" vertex="1">
                    <mxGeometry x="310" y="120" width="20" height="10" as="geometry"/>
                </mxCell>
                <mxCell id="16" value="" style="shape=process;whiteSpace=wrap;html=1;backgroundOutline=1;fontColor=#0A0A0A;strokeColor=#050505;fillColor=#000000;gradientColor=#ffffff;" parent="1" vertex="1">
                    <mxGeometry x="350" y="120" width="20" height="10" as="geometry"/>
                </mxCell>
                <mxCell id="17" value="" style="shape=process;whiteSpace=wrap;html=1;backgroundOutline=1;fontColor=#0A0A0A;strokeColor=#050505;fillColor=#000000;gradientColor=#ffffff;" parent="1" vertex="1">
                    <mxGeometry x="380" y="120" width="20" height="10" as="geometry"/>
                </mxCell>
                <mxCell id="18" value="" style="shape=process;whiteSpace=wrap;html=1;backgroundOutline=1;fontColor=#0A0A0A;strokeColor=#050505;fillColor=#000000;gradientColor=#ffffff;" parent="1" vertex="1">
                    <mxGeometry x="425" y="120" width="20" height="10" as="geometry"/>
                </mxCell>
                <mxCell id="20" value="" style="shape=link;html=1;fontColor=#0A0A0A;entryX=0;entryY=1;entryDx=0;entryDy=0;exitX=0.25;exitY=0.5;exitDx=0;exitDy=0;exitPerimeter=0;fillColor=#d0cee2;strokeColor=#56517e;" parent="1" source="5" target="11" edge="1">
                    <mxGeometry width="100" relative="1" as="geometry">
                        <mxPoint x="320" y="210" as="sourcePoint"/>
                        <mxPoint x="420" y="210" as="targetPoint"/>
                    </mxGeometry>
                </mxCell>
                <mxCell id="22" value="" style="shape=link;html=1;fontColor=#0A0A0A;exitX=0.25;exitY=0.5;exitDx=0;exitDy=0;exitPerimeter=0;fillColor=#d0cee2;strokeColor=#56517e;" parent="1" source="5" target="12" edge="1">
                    <mxGeometry width="100" relative="1" as="geometry">
                        <mxPoint x="361.78571428571433" y="245" as="sourcePoint"/>
                        <mxPoint x="320" y="200" as="targetPoint"/>
                    </mxGeometry>
                </mxCell>
                <mxCell id="23" value="" style="shape=link;html=1;fontColor=#0A0A0A;entryX=0.43;entryY=0.973;entryDx=0;entryDy=0;entryPerimeter=0;exitX=0.25;exitY=0.5;exitDx=0;exitDy=0;exitPerimeter=0;fillColor=#d0cee2;strokeColor=#56517e;" parent="1" source="5" target="13" edge="1">
                    <mxGeometry width="100" relative="1" as="geometry">
                        <mxPoint x="371.78571428571433" y="255" as="sourcePoint"/>
                        <mxPoint x="330" y="210" as="targetPoint"/>
                    </mxGeometry>
                </mxCell>
                <mxCell id="24" value="" style="shape=link;html=1;fontColor=#0A0A0A;entryX=0.5;entryY=1;entryDx=0;entryDy=0;exitX=0.25;exitY=0.5;exitDx=0;exitDy=0;exitPerimeter=0;fillColor=#d0cee2;strokeColor=#56517e;" parent="1" source="5" target="14" edge="1">
                    <mxGeometry width="100" relative="1" as="geometry">
                        <mxPoint x="381.78571428571433" y="265" as="sourcePoint"/>
                        <mxPoint x="340" y="220" as="targetPoint"/>
                    </mxGeometry>
                </mxCell>
                <mxCell id="25" value="" style="shape=flexArrow;endArrow=classic;html=1;fontColor=#0A0A0A;exitX=0.997;exitY=0.51;exitDx=0;exitDy=0;exitPerimeter=0;fillColor=#a0522d;strokeColor=#6D1F00;" parent="1" source="6" edge="1">
                    <mxGeometry width="50" height="50" relative="1" as="geometry">
                        <mxPoint x="330" y="350" as="sourcePoint"/>
                        <mxPoint x="250" y="520" as="targetPoint"/>
                    </mxGeometry>
                </mxCell>
                <mxCell id="27" value="" style="shape=flexArrow;endArrow=classic;html=1;fontColor=#0A0A0A;fillColor=#a0522d;strokeColor=#6D1F00;" parent="1" edge="1">
                    <mxGeometry width="50" height="50" relative="1" as="geometry">
                        <mxPoint x="370" y="340" as="sourcePoint"/>
                        <mxPoint x="330" y="540" as="targetPoint"/>
                    </mxGeometry>
                </mxCell>
                <mxCell id="28" value="" style="shape=flexArrow;endArrow=classic;html=1;fontColor=#0A0A0A;exitX=1;exitY=0.5;exitDx=0;exitDy=0;fillColor=#a0522d;strokeColor=#6D1F00;" parent="1" source="6" edge="1">
                    <mxGeometry width="50" height="50" relative="1" as="geometry">
                        <mxPoint x="380" y="370" as="sourcePoint"/>
                        <mxPoint x="460" y="450" as="targetPoint"/>
                    </mxGeometry>
                </mxCell>
                <mxCell id="26" value="" style="shape=flexArrow;endArrow=classic;html=1;fontColor=#0A0A0A;exitX=1;exitY=0.5;exitDx=0;exitDy=0;fillColor=#a0522d;strokeColor=#6D1F00;" parent="1" source="6" edge="1">
                    <mxGeometry width="50" height="50" relative="1" as="geometry">
                        <mxPoint x="340" y="360" as="sourcePoint"/>
                        <mxPoint x="460" y="530" as="targetPoint"/>
                    </mxGeometry>
                </mxCell>
            </root>
        </mxGraphModel>
    </diagram>
</mxfile>